<?xml version="1.0" encoding="UTF-8"?>
<svg version="1.1" viewBox="0 0 2048 1852" width="525" height="475" xmlns="http://www.w3.org/2000/svg">
<path transform="translate(190,99)" d="m0 0h1666l18 2 21 6 16 7 14 8 14 10 12 10 7 8 13 17 9 16 6 14 4 14 1 9v1410l-2 15-6 17-8 16-7 11-8 10-9 10-7 7-12 9-20 12-16 7-16 5-16 3-15 1h-1651l-19-1-19-4-19-7-21-11-14-10-12-11-12-13-11-16-9-17-7-21-4-20-1-12-1-45 1-1324 2-18 4-17 6-17 8-16 11-16 9-10 7-8 12-10 16-10 15-8 14-5 19-5 4-1z" fill="#93605E"/>
<path transform="translate(190,99)" d="m0 0h1666l18 2 21 6 16 7 14 8 14 10 12 10 7 8 13 17 9 16 6 14 4 14 1 9v1410l-2 15-6 17-8 16-7 11-8 10-9 10-7 7-12 9-20 12-16 7-16 5-16 3-15 1h-1651l-19-1-19-4-19-7-21-11-14-10-12-11-12-13-11-16-9-17-7-21-4-20-1-12-1-45 1-1324 2-18 4-17 6-17 8-16 11-16 9-10 7-8 12-10 16-10 15-8 14-5 19-5 4-1zm19 63-27 2-10 3-16 8-9 6-7 6-5 7-4 4-4 5-6 12-4 10-2 13-1 25v553l-1 183 1 88v524l3 15 4 12 8 13 8 10 9 9h2v2l14 8 10 4 15 4 12 1 988 1h250l411-1 17-2 9-3 11-4 11-7 10-9 9-10 3-5v-2h2l8-18 3-12 2-23-1-78v-684l-1-596-4-16-6-11-6-10h-2l-2-4-7-9-12-9-12-7-14-5-24-3z" fill="#DAA5A2"/>
<path transform="translate(1269,738)" d="m0 0h23l27 2 23 4 23 6 20 8 17 9 12 8 14 11 10 9 12 13 13 18 9 15 12 25 8 25 6 26 4 25 2 20v58l-4 28-4 17-1 1h-305l1 30 3 31 5 30 6 23 8 18 7 13 8 10 10 10 14 9 16 7 17 4 16 2h29l18-3 17-5 16-7 18-11 16-12 8-7 7-8 16-20 5 3 15 12 16 12 14 11 1 2-7 11-9 12-11 13-9 10-15 13-17 12-18 11-21 11-17 6-13 4-21 4-29 3h-33l-32-3-29-5-23-6-22-8-25-12-19-12-16-13-13-12-11-12-11-15-11-18-11-23-10-30-6-25-5-29-3-31-1-20v-30l2-31 4-30 6-31 8-30 10-26 12-23 13-20 12-16 12-13 13-13 17-13 15-10 25-13 17-6 18-5 25-5 15-2z" fill="#FDFDFD"/>
<path transform="translate(927,465)" d="m0 0h101l-1 5-13 36-30 82-9 24-13 36-11 30-17 46-22 60-17 46-20 55-20 54-16 44-18 49-11 29-9 26-16 43-18 49-17 47-15 40-17 47-16 43-23 63-21 57-15 41-21 57-9 25-2 2-93 1-7-1 1-8 19-52 18-49 17-46 23-63 13-35 13-36 20-54 23-63 14-38 18-49 23-63 13-35 16-44 18-49 7-19 18-49 34-93 17-46 36-98 21-58 17-46 13-35z" fill="#FDFDFD"/>
<path transform="translate(1617,703)" d="m0 0 3 1 4 5 8 7 15 15 8 7 7 7 8 7 7 7 8 7 14 14 8 7 9 9 8 7 13 13 8 7 11 11 8 7 12 12 8 7 11 11 8 7 8 8 8 7 12 12 8 7 16 16 8 7 7 7 8 7 9 9-1 4-9 9-8 7-12 12-8 7-13 13-8 7-7 7-8 7-10 10-8 7-11 11-8 7-8 8-8 7-14 14-8 7-7 7-8 7-8 8-8 7-9 9-8 7-12 12-8 7-9 9-8 7-15 14-10 10-8 7-4 1-12-14-9-11-12-14-9-10 1-4 13-15 7-8 10-11 9-11 12-13 7-8 12-14 9-10 12-14 11-12 9-11 11-12 9-11 13-14 9-11 7-7 7-8 8-10-1-4-12-14-9-10-9-11-12-13-9-11-11-12-9-11-12-13-9-11-11-12-9-11-12-13-9-11-13-14-9-11-9-10-9-11-3-4 7-7 9-11 11-13 12-14z" fill="#FDFDFD"/>
<path transform="translate(416,704)" d="m0 0 4 1 9 10 9 11 13 15 9 11 1 5-7 7-7 8-10 11-7 8-12 13-7 8-9 10-1 2h-2l-2 4-22 24-7 8-11 12-7 8-12 13-9 10-7 8-9 10-11 12-7 8-10 11-4 7 8 10 7 7 7 8 15 16 9 10 12 13 14 15 11 12 7 8 14 15 9 10 14 15 7 8 16 17 9 10 7 8 12 13 7 8-2 4-22 24-15 16-8 9-8-6-11-11-8-7-8-8-8-7-10-10-8-7-12-12-8-7-8-8-8-7-16-15-14-14-8-7-7-7-8-7-12-12-8-7-8-8-8-7-11-11-8-7-7-7-8-7-9-9-8-7-9-9-8-7-16-16 1-5 15-14 17-16 7-7 8-7 9-9 8-7 11-11 8-7 8-8 8-7 9-9 8-7 12-12 8-7 15-15 8-7 14-14 8-7 9-9 8-7 12-12 8-7 12-12 8-7 9-9 8-7 7-7z" fill="#FDFDFD"/>
<path transform="translate(209,162)" d="m0 0h1633l24 3 14 5 15 9 9 7 9 11v2h2l7 12 5 9 4 16 1 643v653l1 62-2 23-4 14-4 9-3 7h-2l-2 5-7 9-10 10-16 10-14 5-10 2-11 1-412 1h-250l-987-1-17-2-14-4-17-9-3-2v-2l-4-2-10-10-7-10-7-12-5-18-1-10v-522l-1-88 1-208v-527l1-25 2-13 6-15 10-15 10-10 9-8 22-11 8-2zm79 5-92 1-20 4-9 4v2l-5 1-3 2-11 7-1 4-4 2v2h-2v2h-2l-1 4h-2l-10 16-4 12-3 20-1 108v1183l1 73 2 11 4 10 6 10 9 12h2l1 4h2l2 4 9 7 17 8 13 4 17 2h1638l20-2 13-4 10-5 11-7 12-12 11-17 5-11 3-14 1-87v-1218l-1-71-2-13-8-16-2-3h-2l-1-4-8-11-4-4h-2l-2-4-13-8-14-5-7-2-28-1z" fill="#A67574"/>
<path transform="translate(1275,810)" d="m0 0h11l21 3 13 5 10 7 8 7 7 10 8 19 5 19 4 30 2 25v57l-1 1h-171l-2-1v-23l3-36 5-32 5-24 5-15 7-16 8-12 10-10 14-8 13-4z" fill="#93615F"/>
<path transform="translate(209,162)" d="m0 0h1633l24 3 14 5 15 9 9 7 9 11v2h2l7 12 5 9 4 16 1 643v653l1 62-2 23-4 14-4 9-3 7h-2l-2 5-7 9-10 10-16 10-14 5-10 2-11 1-412 1h-250l-987-1-17-2-14-4-17-9-3-2v-2l-4-2-10-10-7-10-7-12-5-18-1-10v-522l-1-88 1-208v-527l1-25 2-13 6-15 10-15 10-10 9-8 22-11 8-2zm-13 3-17 3-13 4-15 9-3 2v2l-4 2-9 10-10 15-6 15-2 15-1 63v1289l1 23 4 15 6 12 12 17 10 9 11 7 20 8 15 2 38 1h1593l27-1 16-3 11-4 12-7 11-9 6-7 10-15 5-10 3-9 2-17v-1322l-1-51-2-8-4-10-11-17-7-9-8-7-12-8-16-6-14-3z" fill="#BC8D8D"/>
<path transform="translate(294,817)" d="m0 0 3 1-17 17-8 7-12 12-8 7-9 9-8 7-8 8-8 7-11 11-8 7-9 9-8 7-10 10-8 7-9 9-6 5 1 6 10 9 10 10 8 7 9 9 8 7 9 9 8 7 7 7 6 5h-3l-12-11-6-4-7-8-10-8-7-8-8-6-11-12-8-8-5-3-2-3v-7l7-8 3-3h2v-2l16-14 1-2h2v-2l5-4 5-3 8-9h2l2-4 5-3 10-11 3-1 7-8 4-2 2-4 7-6 4-2 7-8h2v-2h2v-2l5-3 7-8 3-1 1-3 5-3 7-8h3l1-4 3-1 1-3z" fill="#A87776"/>
<path transform="translate(1833,906)" d="m0 0 4 2 4 4 5 3 6 5 8 7 11 10 4 4v2l4 2v2l4 2 5 8 1 4-11 11-8 7-10 11-6 4-4 5-16 14-5 5-13 14-5 3-7 7-8 7-11 11-8 7-4 2 6-7 13-12 9-9 8-7 10-10 8-7 7-7 8-7 13-13 8-7 12-12 8-7 3-3-1-4-13-13-8-7-7-7-8-7-16-16z" fill="#CE9C9A"/>
<path transform="translate(294,817)" d="m0 0 3 1-17 17-8 7-12 12-8 7-9 9-8 7-8 8-8 7-11 11-8 7-9 9-2-1 12-12 9-11 5-5 3-1 7-8 4-2 2-4 7-6 4-2 7-8h2v-2h2v-2l5-3 7-8 3-1 1-3 5-3 7-8h3l1-4 3-1 1-3z" fill="#BC8A89"/>
<path transform="translate(510,1596)" d="m0 0h1v5l100-1 3-4-1 5-3 2h-100l-1-5z" fill="#CB9997"/>
<path transform="translate(1833,906)" d="m0 0 4 2 4 4 5 3 6 5 8 7 11 10 4 4v2l4 2v2l4 2 2 5-7-6-4-4-5-2-12-12-8-7-16-16z" fill="#AF7E7C"/>
<path transform="translate(148,957)" d="m0 0 2 4 21 21 8 7 9 9 8 7 9 9 8 7 7 7 6 5h-3l-12-11-6-4-7-8-10-8-7-8-8-6-11-12-8-8-5-3-1-1z" fill="#C79594"/>
<path transform="translate(1830,1014)" d="m0 0 3 1-8 7-9 10-5 3-7 7-8 7-11 11-8 7-4 2 6-7 13-12 9-9 8-7 10-10 8-7z" fill="#C59391"/>
<path transform="translate(1787,863)" d="m0 0 4 2 10 7 4 3v2h2l7 8 9 10 10 10h-3l-17-17-8-7-8-8-8-7z" fill="#C18F8E"/>
<path transform="translate(226,1034)" d="m0 0 7 6 33 31 9 9h-3l-10-10-5-3-11-12-5-4-15-15z" fill="#CA9796"/>
<path transform="translate(219,888)" d="m0 0 3 1-14 14-8 7-9 9-2-1 12-12 9-11 5-5z" fill="#C59391"/>
<path transform="translate(185,921)" d="m0 0 2 1-14 14-8 7-9 9-2-1 7-7 7-8 5-5 5-3z" fill="#D09D9B"/>
<path transform="translate(1864,982)" d="m0 0 3 1-7 7-6 4-4 5-8 7-9 8-2-1 13-12 11-11 8-7z" fill="#CB9998"/>
<path transform="translate(200,904)" d="m0 0h2l-2 4-10 10-2 3-5 3-7 7-1-3 1-2h2v-2l5-4 5-3 8-9h2z" fill="#B38382"/>
<path transform="translate(148,957)" d="m0 0 2 4 21 21 7 6h-3l-13-12-8-8-5-3-1-1z" fill="#D19D9B"/>
<path transform="translate(1889,958)" d="m0 0 1 4-5 6-6 5-11 11-2-1 7-8 13-12z" fill="#A97877"/>
<path transform="translate(294,817)" d="m0 0 3 1-17 17h-3l2-4 2-2h3l1-4 3-1 1-3z" fill="#BA8887"/>
<path transform="translate(276,835)" d="m0 0 2 1-18 18-4 2 2-4 7-8 3-1 1-3 5-3z" fill="#C69492"/>
<path transform="translate(253,855)" d="m0 0h3l-2 4-11 11-3 1 2-4 7-8h2v-2h2z" fill="#BE8C8B"/>
<path transform="translate(1833,906)" d="m0 0 4 2 20 20h-3l-21-21z" fill="#CC9A98"/>
<path transform="translate(219,888)" d="m0 0 3 1-14 14-2-1 8-8z" fill="#D19E9C"/>
<path transform="translate(1858,990)" d="m0 0 2 1-9 9-5 4-2-1 8-7 4-5z" fill="#A87777"/>
<path transform="translate(1823,895)" d="m0 0 4 2 4 3v2l4 2 3 3-1 2-12-11z" fill="#A67574"/>
<path transform="translate(200,904)" d="m0 0h2l-2 4-7 7-3-1 6-6h2z" fill="#AD7C7C"/>
<path transform="translate(154,949)" d="m0 0 2 1-6 7h-2v5h-1v-7z" fill="#BB8A89"/>
<path transform="translate(227,879)" d="m0 0h2l-2 4-4 5-4-1z" fill="#B1807F"/>
</svg>
